<svg width="149" height="147" viewBox="0 0 149 147" fill="none" xmlns="http://www.w3.org/2000/svg">
<path fill-rule="evenodd" clip-rule="evenodd" d="M74.5 4.59375C35.0538 4.59375 3.10416 36.1145 3.10416 75.0312C3.10416 106.2 23.5412 132.526 51.9211 141.859C55.4908 142.475 56.8295 140.362 56.8295 138.513C56.8295 136.84 56.7403 131.293 56.7403 125.394C38.8021 128.652 34.1613 121.08 32.7334 117.118C31.9302 115.093 28.4497 108.841 25.4154 107.168C22.9165 105.848 19.3467 102.59 25.3261 102.502C30.9485 102.414 34.9645 107.609 36.3032 109.722C42.7288 120.375 52.992 117.382 57.0973 115.533C57.722 110.954 59.5961 107.873 61.6487 106.112C45.7632 104.351 29.1636 98.2756 29.1636 71.3333C29.1636 63.6732 31.9302 57.3338 36.4817 52.4032C35.7677 50.6423 33.2689 43.4224 37.1957 33.7373C37.1957 33.7373 43.1751 31.8883 56.8295 40.9571C62.5412 39.3723 68.6098 38.5798 74.6785 38.5798C80.7471 38.5798 86.8158 39.3723 92.5274 40.9571C106.182 31.8002 112.161 33.7373 112.161 33.7373C116.088 43.4224 113.589 50.6423 112.875 52.4032C117.427 57.3338 120.193 63.5852 120.193 71.3333C120.193 98.3637 103.505 104.351 87.619 106.112C90.2071 108.313 92.4382 112.539 92.4382 119.143C92.4382 128.564 92.3489 136.136 92.3489 138.513C92.3489 140.362 93.6876 142.563 97.2574 141.859C125.459 132.526 145.896 106.112 145.896 75.0312C145.896 36.1145 113.946 4.59375 74.5 4.59375Z" fill="#85B6E3"/>
</svg>
