<svg width="142" height="140" viewBox="0 0 142 140" fill="none" xmlns="http://www.w3.org/2000/svg">
<path fill-rule="evenodd" clip-rule="evenodd" d="M71.0002 0C51.7176 0 49.2997 0.0802984 41.7268 0.419767C34.1697 0.758405 29.0084 1.93768 24.4923 3.66216C19.8234 5.44451 15.8639 7.82965 11.9165 11.7075C7.96945 15.5856 5.54172 19.4757 3.72755 24.0627C1.97228 28.4996 0.771946 33.5703 0.427262 40.9948C0.0817322 48.4349 0 50.8104 0 69.7547C0 88.6988 0.0817322 91.0742 0.427262 98.5143C0.771946 105.939 1.97228 111.01 3.72755 115.446C5.54172 120.033 7.96945 123.923 11.9165 127.802C15.8639 131.679 19.8234 134.065 24.4923 135.847C29.0084 137.571 34.1697 138.751 41.7268 139.089C49.2997 139.429 51.7176 139.509 71.0002 139.509C90.2825 139.509 92.7003 139.429 100.273 139.089C107.83 138.751 112.992 137.571 117.508 135.847C122.177 134.065 126.136 131.679 130.083 127.802C134.031 123.923 136.458 120.033 138.273 115.446C140.028 111.01 141.228 105.939 141.573 98.5143C141.918 91.0742 142 88.6988 142 69.7547C142 50.8104 141.918 48.4349 141.573 40.9948C141.228 33.5703 140.028 28.4996 138.273 24.0627C136.458 19.4757 134.031 15.5856 130.083 11.7075C126.136 7.82965 122.177 5.44451 117.508 3.66216C112.992 1.93768 107.83 0.758405 100.273 0.419767C92.7003 0.0802984 90.2825 0 71.0002 0ZM71.0001 12.5683C89.9577 12.5683 92.2034 12.6394 99.69 12.975C106.612 13.2851 110.372 14.4215 112.874 15.3768C116.188 16.6422 118.553 18.1537 121.037 20.5948C123.522 23.0356 125.061 25.3593 126.349 28.6152C127.321 31.0732 128.477 34.7666 128.793 41.5676C129.135 48.923 129.207 51.1292 129.207 69.7546C129.207 88.3797 129.135 90.586 128.793 97.9413C128.477 104.742 127.321 108.436 126.349 110.894C125.061 114.15 123.522 116.473 121.037 118.914C118.553 121.355 116.188 122.867 112.874 124.132C110.372 125.087 106.612 126.224 99.69 126.534C92.2045 126.869 89.9591 126.941 71.0001 126.941C52.0408 126.941 49.7957 126.869 42.3098 126.534C35.3874 126.224 31.628 125.087 29.1262 124.132C25.8121 122.867 23.4469 121.355 20.9625 118.914C18.4782 116.473 16.9393 114.15 15.6513 110.894C14.679 108.436 13.5224 104.742 13.2067 97.9413C12.8651 90.586 12.7927 88.3797 12.7927 69.7546C12.7927 51.1292 12.8651 48.923 13.2067 41.5676C13.5224 34.7666 14.679 31.0732 15.6513 28.6152C16.9393 25.3593 18.4779 23.0356 20.9625 20.5948C23.4469 18.1537 25.8121 16.6422 29.1262 15.3768C31.628 14.4215 35.3874 13.2851 42.3098 12.975C49.7965 12.6394 52.0422 12.5683 71.0001 12.5683ZM34.5406 69.7547C34.5406 49.9716 50.8639 33.9346 71.0002 33.9346C91.1362 33.9346 107.459 49.9716 107.459 69.7547C107.459 89.5374 91.1362 105.574 71.0002 105.574C50.8639 105.574 34.5406 89.5374 34.5406 69.7547ZM71.0001 93.006C57.9292 93.006 47.3333 82.596 47.3333 69.7546C47.3333 56.9129 57.9292 46.5029 71.0001 46.5029C84.0708 46.5029 94.6666 56.9129 94.6666 69.7546C94.6666 82.596 84.0708 93.006 71.0001 93.006ZM108.9 40.8899C113.606 40.8899 117.42 37.1424 117.42 32.5195C117.42 27.8965 113.606 24.1488 108.9 24.1488C104.195 24.1488 100.38 27.8965 100.38 32.5195C100.38 37.1424 104.195 40.8899 108.9 40.8899Z" fill="#85B6E3"/>
</svg>
