<svg width="146" height="144" viewBox="0 0 146 144" fill="none" xmlns="http://www.w3.org/2000/svg">
<path d="M139.92 37.017L139.907 37.0093L139.894 37.002L77.2466 2.00201L77.1706 1.95958L77.0885 1.9309L77.0143 1.90499C75.8138 1.48558 74.4239 1 73 1C71.5761 1 70.1862 1.48558 68.9857 1.90499L68.9115 1.9309L68.8294 1.95958L68.7534 2.00201L6.10639 37.002L6.09334 37.0093L6.08051 37.017C2.86115 38.9441 1 42.3291 1 45.75V58.875V59.3434L1.35985 59.6432L37.1886 89.4982L18.0675 105.355L17.7059 105.655V106.125V117.5V119.653L19.351 118.264L47.0539 94.875H98.5284L126.231 118.264L127.876 119.653V117.5V106.125V105.661L127.523 105.362L108.802 89.5069L134.647 68.0076V132.25H11.3529V76.8125V76.3458L10.9952 76.0461L2.64231 69.0461L1 67.6698V69.8125V133.25C1 138.571 5.16328 143 10.3529 143H135.647C140.837 143 145 138.571 145 133.25V45.75C145 42.3291 143.139 38.9441 139.92 37.017ZM134.647 46.3368V54.035L98.9466 84.125H47.0535L11.3529 54.035V46.3368L73 11.8955L134.647 46.3368Z" fill="#85B6E3" stroke="#85B6E3" stroke-width="2"/>
</svg>
